<?xml version="1.0" encoding="UTF-8" standalone="no"?>
<!-- Created with Inkscape (http://www.inkscape.org/) -->

<svg
   width="198.0825mm"
   height="107.30354mm"
   viewBox="0 0 198.0825 107.30354"
   version="1.1"
   id="svg5"
   inkscape:version="1.2.2 (b0a8486541, 2022-12-01)"
   sodipodi:docname="SideQuest2 light pink.svg"
   xmlns:inkscape="http://www.inkscape.org/namespaces/inkscape"
   xmlns:sodipodi="http://sodipodi.sourceforge.net/DTD/sodipodi-0.dtd"
   xmlns="http://www.w3.org/2000/svg"
   xmlns:svg="http://www.w3.org/2000/svg">
  <sodipodi:namedview
     id="namedview7"
     pagecolor="#ffffff"
     bordercolor="#000000"
     borderopacity="0.25"
     inkscape:showpageshadow="2"
     inkscape:pageopacity="0.0"
     inkscape:pagecheckerboard="0"
     inkscape:deskcolor="#d1d1d1"
     inkscape:document-units="mm"
     showgrid="false"
     inkscape:zoom="0.91923882"
     inkscape:cx="337.23554"
     inkscape:cy="212.67596"
     inkscape:window-width="1920"
     inkscape:window-height="1023"
     inkscape:window-x="0"
     inkscape:window-y="0"
     inkscape:window-maximized="1"
     inkscape:current-layer="layer2" />
  <defs
     id="defs2">
    <rect
       x="347.60272"
       y="349.14951"
       width="434.18997"
       height="196.95755"
       id="rect9638" />
  </defs>
  <g
     inkscape:label="Layer 1"
     inkscape:groupmode="layer"
     id="layer1"
     transform="translate(1.6583799,1.6587926)"
     style="display:none" />
  <g
     inkscape:groupmode="layer"
     id="layer2"
     inkscape:label="Drawing"
     transform="translate(2.2428558,1.6587926)">
    <path
       style="fill:#1a2a4f;fill-opacity:1;fill-rule:evenodd;stroke:#1a2a4f;stroke-width:1;stroke-linecap:square;stroke-linejoin:round;stroke-dasharray:none;stroke-dashoffset:0;stroke-opacity:1;paint-order:stroke fill markers"
       id="path9522"
       d="m -97.619458,11.010862 c 1.507646,-0.13328 2.801148,-1.0794003 4.024634,-1.8908003 1.896831,-1.37072 3.754817,-2.79457 5.61785,-4.2107 1.758628,-1.29974 3.563989,-2.53291 5.505869,-3.54159 0.277529,-0.17067 1.860253,-0.74644002 1.760651,-1.26408002 -0.04206,-0.21858 -0.247743,-0.36987 -0.371612,-0.5548 -0.67585,-0.2302 -1.385089,-0.36463 -2.08832,-0.4848 -0.847243,-0.10279998 -1.697159,-0.12993998 -2.533057,-0.31280998 -1.070078,-0.22918 -1.724947,-1.03784 -2.382403,-1.84839 -0.92762,-1.16047 -1.500636,-2.53683 -2.063224,-3.89768 -0.584166,-1.5098 -0.917922,-3.0949177 -1.150276,-4.6919507 -0.166062,-1.20427 -0.278049,-2.433114 0.02653,-3.622101 0.249317,-0.817205 0.631566,-1.544545 1.197502,-2.181831 0.873052,-0.849622 1.902573,-1.506476 3.021836,-1.976916 0.789751,-0.345147 1.610171,-0.607105 2.46245,-0.736063 0.901946,0.03162 1.776005,0.303522 2.648392,0.514535 1.512117,0.341289 3.032884,0.646464 4.52937,1.052309 1.184389,0.363156 2.391103,0.760367 3.46406,1.390504 0.967782,0.572675 1.677786,1.405435 2.308931,2.317115 0.718296,1.11093 1.168329,2.335234 1.449623,3.619831 0.197099,0.814901 0.174935,1.5963677 -0.01931,2.4019777 -0.115502,0.22912 -0.258509,0.87564 -0.51271,1.00145 0.03055,-0.19269 0.36743,-0.0392 0.41752,-0.0863 0.04239,-0.0399 0.0052,-0.1164 0.01056,-0.17438 0.01328,-0.14339 0.02743,-0.28675 0.04544,-0.42963 0.03636,-0.28843 0.07843,-0.57611 0.117647,-0.86416 0.316778,-2.0343037 0.696648,-4.0543977 1.324412,-6.0169257 0.619953,-1.637202 1.462153,-3.173751 2.497158,-4.582803 0.843767,-1.058468 1.995633,-1.775307 3.140224,-2.464083 1.193551,-0.726784 2.537647,-0.86817 3.898698,-0.968955 1.742549,-0.07224 3.441124,0.310759 5.101686,0.793533 1.230013,0.414462 2.497542,0.75999 3.635822,1.397609 0.74364,0.482666 1.327261,1.173776 1.805027,1.912207 0.54927,1.043628 0.89771,2.17922 1.222269,3.308879 0.376989,1.417916 0.315817,1.92904 -0.410289,3.176104 -1.190652,1.697654 -2.635647,3.1796447 -4.162383,4.5724247 -0.575659,0.50674 -1.190098,0.96625 -1.774881,1.46198 -0.187211,0.1587 -0.524896,0.4383 -0.669139,0.65673 -0.07453,0.11286 -0.113212,0.24565 -0.169817,0.36848 0.01349,0.15791 -0.0377,0.33585 0.04048,0.47371 0.399272,0.70411 1.859259,0.5977 2.558629,0.61806 0.868863,0.0435 1.730306,-0.009 2.594729,-0.0858 1.17267,-0.0217 2.372032,-0.27568 3.546343,-0.14563 0.282091,0.0312 0.55685,0.11011 0.835276,0.16516 1.329544,0.34072 2.650498,0.90422 3.525703,2.00753 0.145206,0.18305 0.260395,0.38803 0.390593,0.58204 0.610246,1.27274998 0.389142,1.98809998 -0.373517,3.09705998 -0.982435,1.18203002 -2.175814,2.08898002 -3.541498,2.78015002 -1.67562,0.7796 -3.463743,1.28129 -5.271937,1.63977 -1.474848,0.27583 -2.971943,0.26162 -4.464206,0.2949 -0.699728,0.11082 -0.856372,0.41734 -0.424299,1.06602 0.136295,0.20463 0.838883,0.32066 1.061043,0.36779 0.825439,0.14371 1.644321,0.30556 2.478836,0.38869 0.385548,0.0967 0.945203,-0.11271 1.263898,0.20819 0.359821,0.3623 0.611447,1.47218 0.734232,1.91931 0.280834,1.4199003 0.401016,2.8843903 0.173673,4.3216703 -0.126288,0.7984 -0.27935,1.23988 -0.502034,2.01063 -0.586589,1.772441 -1.714,3.242171 -3.023221,4.540251 -1.175036,1.16064 -2.665072,1.71301 -4.243274,2.06748 -2.499614,0.39262 -5.034092,0.332 -7.553558,0.25459 -1.654506,-0.0341 -3.278828,-0.3369 -4.911881,-0.56509 -1.515089,-0.16165 -2.191213,-1.52555 -2.820352,-2.74707 -0.621411,-1.43985 -1.111179,-2.942541 -1.473814,-4.468621 -0.106482,-0.74865 0.03312,-1.15554 -0.552217,-1.73397 -0.739164,-0.37235 -1.601814,-0.30042 -2.407931,-0.30531 -1.693103,-0.0935 -3.275491,0.48982 -4.818774,1.11159 -2.520704,1.10554 -4.726165,2.76572 -6.904433,4.420731 -1.735752,1.40182 -3.357003,2.94855 -5.223751,4.17972 -0.154572,0.0789 -0.309145,0.15782 -0.463718,0.23673 -0.628026,0.32493 -0.168496,1.2131 0.45953,0.88816 v 0 c 0.185204,-0.0969 0.370408,-0.19378 0.555613,-0.29067 1.88266,-1.24702 3.530789,-2.79384 5.277386,-4.21776 2.10727,-1.60179 4.238155,-3.213111 6.673848,-4.289671 1.421829,-0.57568 2.876275,-1.12893 4.438322,-1.03885 0.59113,0.003 1.188289,0.003 1.773759,0.0736 0.17463,-0.10277 0.155289,1.11028 0.219596,1.1975 0.383328,1.60482 0.896432,3.186121 1.558872,4.697251 0.818412,1.56815 1.651037,3.04131 3.569809,3.27707 1.668737,0.23273 3.328807,0.54046 5.019458,0.57422 2.60383,0.0798 5.223999,0.13946 7.805682,-0.27894 1.760204,-0.40368 3.418064,-1.0368 4.727082,-2.33371 1.426131,-1.42303 2.647699,-3.03261 3.279037,-4.972901 0.243218,-0.84992 0.400619,-1.30123 0.535826,-2.18568 0.238834,-1.56235 0.109054,-3.15231 -0.205769,-4.6932503 -0.265046,-0.92628 -0.483632,-1.97261 -1.326774,-2.57792 -0.449784,-0.32291 -1.028893,-0.21427 -1.535795,-0.2744 -0.799351,-0.0783 -1.582939,-0.23694 -2.373754,-0.37263 -0.238522,-0.0482 -0.307377,-0.057 -0.522346,-0.11614 -0.0298,-0.008 -0.08462,-0.0597 -0.08807,-0.029 -0.01714,0.15254 0.09879,0.31706 0.03979,0.45877 -0.07732,0.18571 -0.541809,0.33028 -0.247195,0.23142 1.550336,-0.0347 3.105642,-0.0242 4.637288,-0.31392 1.897954,-0.37995 3.775258,-0.90496 5.532163,-1.73033 0.290631,-0.15023 0.590224,-0.28426 0.8719,-0.45069 1.161007,-0.68595 2.177266,-1.63747 3.043105,-2.6606 1.015579,-1.53064002 1.20845,-2.52206 0.369853,-4.22052 -0.162825,-0.23453 -0.307197,-0.48303 -0.488477,-0.70361 -1.029099,-1.25223 -2.527768,-1.92105 -4.067569,-2.30413 -0.334505,-0.0608 -0.665429,-0.14652 -1.003517,-0.18241 -1.210183,-0.12847 -2.443694,0.12276 -3.651903,0.14936 -0.825609,0.073 -1.647746,0.12534 -2.477857,0.0823 -0.143571,-0.004 -1.662446,-0.10891 -1.670924,-0.10272 -0.09489,0.0693 0.190392,0.28579 -0.01712,0.35208 -0.04568,-0.13994 -0.03858,-0.0681 0.173757,-0.27693 0.672838,-0.66174 1.48925,-1.16498 2.174314,-1.81317 1.601981,-1.46259 3.118914,-3.0213937 4.355439,-4.8130217 0.852151,-1.500926 0.953259,-2.277052 0.504097,-3.950798 -0.353277,-1.224722 -0.73202,-2.456799 -1.34638,-3.579641 -0.574839,-0.87081 -1.263742,-1.683004 -2.15841,-2.240145 -1.210561,-0.660932 -2.533055,-1.059103 -3.840564,-1.482616 -1.775537,-0.514483 -3.592574,-0.91489 -5.454846,-0.830392 -1.517235,0.11408 -3.012713,0.298529 -4.340215,1.109559 -1.258128,0.758415 -2.513128,1.557782 -3.431156,2.729987 -1.094256,1.499229 -1.993688,3.127076 -2.642968,4.869574 -0.642535,2.01894 -1.040357,4.094458 -1.362739,6.1871237 -0.09817,0.73339 -0.558014,3.20244 1.072113,2.4286 0.415396,-0.41291 0.638228,-0.95678 0.813115,-1.50952 0.225721,-0.95333 0.251251,-1.8881947 0.0232,-2.8495267 -0.313,-1.411142 -0.81084,-2.757556 -1.605188,-3.975491 -0.718944,-1.029584 -1.531683,-1.966516 -2.628937,-2.611623 -1.156234,-0.661424 -2.42951,-1.113287 -3.703642,-1.490279 -1.50553,-0.407165 -3.034332,-0.717439 -4.555702,-1.059056 -0.996566,-0.240971 -1.99994,-0.561168 -3.035205,-0.530976 -0.933823,0.145127 -1.835615,0.423923 -2.701434,0.803976 -1.254583,0.537075 -2.414489,1.269397 -3.383827,2.239084 -0.661674,0.765747 -1.131437,1.623822 -1.415524,2.600053 -0.317548,1.320458 -0.245382,2.669889 -0.0453,4.006641 0.245707,1.6783777 0.598398,3.3440677 1.215729,4.9297677 0.600334,1.45048 1.219276,2.91261 2.211798,4.1468 0.805288,0.98579 1.646007,1.92339998 2.947868,2.19472998 0.8509,0.17998 1.712079,0.23045 2.575153,0.3209 0.615431,0.10448 1.23081,0.22805 1.829744,0.40349 -0.268073,-0.64965 -0.268091,-0.27956 -0.02302,-0.72778 0.01442,-0.0264 -0.04002,0.046 -0.06527,0.0623 -0.421317,0.27281 -0.902427,0.44193 -1.335563,0.69263 -1.991519,1.03646002 -3.846494,2.29734002 -5.6497,3.63271002 -1.846107,1.40327 -3.687592,2.81362 -5.565854,4.17373 -1.057416,0.70298 -2.178854,1.55152 -3.471485,1.7238803 -0.707107,0 -0.707107,1 0,1 z" />
    <path
       style="fill:#1a2a4f;fill-opacity:1;fill-rule:evenodd;stroke:#1a2a4f;stroke-width:1;stroke-linecap:square;stroke-linejoin:round;stroke-dasharray:none;stroke-dashoffset:0;stroke-opacity:1;paint-order:stroke fill markers"
       id="path9540"
       d="m -78.577941,3.8128217 c 0.490188,-0.50358 0.884922,-1.08316 1.267581,-1.66932 0.421426,-0.65718 0.753647,-1.36153002 1.06644,-2.07484002 0.359199,-0.83312 0.6656,-1.68816998 0.96142,-2.54549998 0.204403,-0.61283 0.436094,-1.11861 0.890301,-1.58318 0.363866,-0.34771 0.812967,-0.55849 1.29826,-0.67015 0.481682,-0.1032 0.970812,-0.15863 1.463032,-0.14465 0.293288,0.0237 0.57807,0.10131 0.856129,0.19426 0.354562,0.13172 0.700386,0.28537 1.047514,0.43574 0.365162,0.11981 0.696436,0.30616 1.020771,0.50812 0.341376,0.22729 0.658738,0.48784 0.99265,0.72577 0.3639,0.26743 0.764757,0.47805 1.15098,0.7105 0.30493,0.19627 0.641001,0.32684 0.976638,0.4584 0.383979,0.15883 0.792832,0.24066 1.192551,0.34868 0.333079,0.10161 0.672819,0.17821 0.985139,0.33594 0.23912,0.17930998 0.44636,0.39396998 0.643012,0.61787998 0.285546,0.29492 0.450635,0.67105 0.582628,1.0539 0.08744,0.31815 0.182883,0.63267002 0.31187,0.93647002 0.20276,0.4343 0.464767,0.8371 0.674102,1.26795 0.161198,0.38195 0.363919,0.74497 0.509847,1.13315 0.0059,0.0374 0.01712,0.0744 0.01765,0.1123 5.29e-4,0.044 -0.0098,0.0874 -0.01418,0.13114 -0.03546,0.35815 -0.0914,0.69256 -0.204158,1.03504 -0.203128,0.5356 -0.46614,1.04053 -0.818343,1.49211 -0.205046,0.19589 -0.393168,0.45805 -0.668041,0.5601 -0.265665,0.0889 -0.549307,0.13519 -0.82949,0.12869 -0.518091,-0.044 -1.036002,-0.0487 -1.555371,-0.0341 -0.799164,0.0134 -1.5957,0.0753 -2.391678,0.14327 -0.773088,0.05 -1.54219,0.14012 -2.310942,0.23325 -0.540364,0.0353 -1.069464,0.12392 -1.592614,0.26163 -0.636619,0.18169 -1.255654,0.41796 -1.882606,0.62941 -0.594653,0.20751 -1.197009,0.39073 -1.810017,0.53551 -0.674045,0.12293 -1.361051,0.15369 -2.04466,0.17421 -0.54837,0.0109 -1.096465,0.0215 -1.643677,-0.0194 -0.310991,-0.0383 -0.605025,-0.15364 -0.837295,-0.36524 -0.368337,-0.52729 -0.631192,-1.12059 -0.854136,-1.7213 -0.181157,-0.52233 -0.211124,-1.08121 -0.250229,-1.62871 0.0011,-0.254 0.0227,-0.52506 0.126235,-0.76059 0.111448,-0.14916 0.269732,-0.21244 0.432157,-0.29073 0.213167,-0.0989 0.379275,-0.26958 0.581771,-0.3855 0.10563,-0.0481 0.220761,-0.0655 0.330992,-0.10331 0.140628,-0.0621 0.07026,-0.0255 0.210102,-0.11165 0.583356,-0.39963 0.0182,-1.22462 -0.565147,-0.82499 v 0 c 0.0094,-0.004 0.01881,-0.008 0.02823,-0.0118 -2.04e-4,10e-4 -5.3e-4,0.002 -5.3e-4,0.004 -0.173029,0.0611 -0.360317,0.0846 -0.517001,0.19005 -0.174363,0.10647 -0.332017,0.23524 -0.503965,0.3435 -0.389755,0.18925 -0.735758,0.41878 -0.927026,0.82456 -0.143377,0.38224 -0.210595,0.78957 -0.193169,1.19849 0.04636,0.64279 0.09063,1.29601 0.310943,1.90719 0.284874,0.7577 0.612683,1.52542 1.151239,2.13992 0.07889,0.0629 0.153609,0.13135 0.236681,0.18859 0.342109,0.2356903 0.759814,0.3521403 1.166362,0.4052203 0.581922,0.0427 1.164646,0.0346 1.747753,0.0217 0.751049,-0.0228 1.505945,-0.0583 2.245326,-0.20077 0.642678,-0.1531303 1.275244,-0.3426903 1.898853,-0.5609703 0.60614,-0.20462 1.204881,-0.43234 1.819649,-0.61045 0.477932,-0.12836 0.962093,-0.2022 1.456131,-0.23537 0.757039,-0.0917 1.514385,-0.18068 2.275724,-0.22961 0.777113,-0.0663 1.554731,-0.12725 2.334979,-0.14006 0.509101,-0.0146 1.016072,-0.006 1.524043,0.0345 0.425833,-0.003 0.853421,-0.0608 1.25109,-0.22052 0.411083,-0.20206 0.743442,-0.50958 1.040484,-0.85653 0.420082,-0.54691 0.74353,-1.15217 0.980266,-1.80084 0.164203,-0.52996 0.306506,-1.11553 0.243681,-1.6762 -0.0099,-0.0887 -0.04086,-0.17385 -0.0613,-0.26077 -0.159588,-0.41589 -0.368924,-0.80905 -0.546417,-1.21743 -0.205087,-0.41622 -0.450165,-0.81053 -0.655082,-1.22677 -0.125603,-0.27848002 -0.194831,-0.57712002 -0.285133,-0.86821002 -0.178105,-0.50325 -0.404551,-0.99427 -0.777121,-1.38571998 -0.283345,-0.31912 -0.583288,-0.63021 -0.950947,-0.85302 -0.373298,-0.18058 -0.768091,-0.2922 -1.166305,-0.40418 -0.364397,-0.098 -0.73737,-0.17161 -1.087945,-0.3142 -0.28361,-0.11114 -0.569217,-0.21666 -0.826183,-0.38434 -0.364421,-0.21897 -0.742672,-0.41741 -1.086644,-0.66837 -0.351054,-0.24926 -0.682566,-0.52549 -1.044051,-0.75999 -0.366109,-0.22761 -0.741487,-0.43861 -1.152006,-0.57684 -0.374465,-0.16178 -0.747337,-0.32802 -1.13075,-0.46744 -0.37157,-0.12171 -0.751927,-0.222 -1.144135,-0.24443 -0.579779,-0.0137 -1.156348,0.0472 -1.723176,0.17217 -0.690036,0.17166 -1.272111,0.45231 -1.788744,0.95337 -0.08533,0.0915 -0.176131,0.17826 -0.256001,0.27459 -0.404426,0.48777 -0.64634,1.08024 -0.854792,1.6714 -0.286927,0.83185 -0.583848,1.66162 -0.931955,2.47011998 -0.290549,0.66298 -0.596894,1.31856 -0.987993,1.92977002 -0.353275,0.54137 -0.714897,1.0786 -1.169311,1.54234 -0.476268,0.52265 0.262874,1.1962 0.739146,0.67355 z" />
    <path
       style="fill:#1a2a4f;fill-opacity:1;fill-rule:evenodd;stroke:#1a2a4f;stroke-width:1;stroke-linecap:square;stroke-linejoin:round;stroke-dasharray:none;stroke-dashoffset:0;stroke-opacity:1;paint-order:stroke fill markers"
       id="path9542"
       d="m -65.802654,-6.4541683 c 0.258995,-0.80325 0.411265,-1.63281 0.597918,-2.45403 0.175848,-0.61763 0.326647,-1.2500427 0.582922,-1.8414317 0.133742,-0.308631 0.221803,-0.443045 0.388308,-0.732454 0.415756,-0.706813 1.028655,-1.25517 1.607886,-1.823474 0.387112,-0.37442 0.756182,-0.773448 1.206236,-1.074195 0.202202,-0.109363 0.414795,-0.05272 0.630597,-0.02204 0.500922,0.09716 0.982236,0.270669 1.460246,0.445323 0.35696,0.154038 0.719346,0.307491 1.024813,0.553321 0.171067,0.137665 0.235464,0.216146 0.388147,0.376306 0.420129,0.467505 0.614568,1.078174 0.800205,1.666756 0.173924,0.703146 0.148503,1.4378587 0.03764,2.1484687 -0.254336,0.79654 -0.761807,1.46618 -1.327682,2.06727 -0.540033,0.54689 -1.213908,0.90929 -1.886116,1.26403 -0.484802,0.22903 -0.983933,0.43046 -1.508557,0.5478 -0.303336,0.0678 -0.469916,0.0838 -0.777179,0.12545 -0.685366,0.0984 -1.3707,0.0323 -2.051706,-0.0583 -0.523333,-0.0523 -1.036762,-0.14504 -1.545616,-0.27568 -0.06365,-0.0215 -0.169455,-0.0457 -0.229497,-0.0946 -0.0054,-0.004 0.01537,-0.004 0.02077,-2e-5 0.03452,0.0277 0.06698,0.0585 0.09492,0.0928 0.01527,0.0187 0.03122,0.0887 0.0332,0.0646 0.0039,-0.0477 -0.01794,-0.094 -0.02692,-0.14098 -0.03821,-0.19743 -0.126762,-0.37957 -0.183822,-0.57091 -0.0031,-0.0104 -0.0071,-0.0425 -0.0036,-0.0323 0.0072,0.0214 0.01,0.0441 0.01495,0.0661 -0.0085,0.17837 0.08281,-0.25919 0.08381,-0.2647 0.117287,-0.69732 -0.868863,-0.86318 -0.986147,-0.16587 v 0 c -0.01622,0.13149 -0.0972,0.24644 -0.09651,0.38254 0.0028,0.0673 -2.49e-4,0.13517 0.0084,0.202 0.02593,0.20015 0.141745,0.37886 0.18165,0.57571 0.01685,0.0822 0.05619,0.27993 0.07452,0.31872 0.149913,0.31737 0.448588,0.44513 0.765871,0.53557 0.547293,0.14021 1.099812,0.24103 1.662353,0.29832 0.769903,0.10209 1.545201,0.16871 2.319446,0.0577 0.363376,-0.0505 0.535604,-0.0665 0.896622,-0.14935 0.597774,-0.13721 1.16803,-0.36597 1.719916,-0.63027 0.770488,-0.40693 1.535658,-0.83335 2.149481,-1.46516 0.715602,-0.76893 1.304403,-1.57214 1.586267,-2.60133 0.126595,-0.86321 0.154643,-1.7495057 -0.07321,-2.5997947 -0.234476,-0.736365 -0.497334,-1.482947 -1.0341,-2.059213 -0.213376,-0.218799 -0.286959,-0.309292 -0.529193,-0.497482 -0.379833,-0.295095 -0.819094,-0.493022 -1.26024,-0.676881 -0.54425,-0.198467 -1.093189,-0.393944 -1.665157,-0.49638 -0.484228,-0.06633 -0.899772,-0.0843 -1.330495,0.185277 -0.49549,0.340358 -0.920747,0.763599 -1.344657,1.187585 -0.645015,0.632881 -1.319046,1.250075 -1.775794,2.041158 -0.206089,0.362807 -0.287551,0.483407 -0.454466,0.872378 -0.272701,0.6355 -0.437547,1.3127727 -0.623716,1.9763327 -0.177527,0.78359 -0.322776,1.57468 -0.565592,2.3422 -0.235553,0.66672 0.707329,0.99984 0.942883,0.33312 z" />
    <path
       style="fill:#1a2a4f;fill-opacity:1;fill-rule:evenodd;stroke:#1a2a4f;stroke-width:1;stroke-linecap:square;stroke-linejoin:round;stroke-dasharray:none;stroke-dashoffset:0;stroke-opacity:1;paint-order:stroke fill markers"
       id="path9544"
       d="m -75.079343,-7.1750183 c -0.494951,-0.67425 -1.039664,-1.30971 -1.583634,-1.94438 -0.648248,-0.77357 -1.369521,-1.4791997 -2.089743,-2.1844277 -0.503124,-0.484386 -0.980159,-0.997183 -1.540653,-1.416614 -0.317865,-0.243662 -0.682058,-0.401807 -1.068199,-0.498152 -0.463905,-0.104275 -0.916673,-0.03174 -1.368827,0.08835 -0.538041,0.201567 -1.04674,0.48256 -1.472875,0.872029 -0.274561,0.250939 -0.380299,0.401987 -0.610164,0.685597 -0.247398,0.364019 -0.458208,0.757822 -0.550343,1.192741 -0.108361,0.5115167 -0.07557,1.0306767 -0.05371,1.5478967 0.04456,0.86038 0.269338,1.70291 0.668894,2.46713 0.07215,0.13801 0.156852,0.26907 0.235278,0.4036 0.55636,0.8444 1.450562,1.32222 2.327407,1.76929 0.643115,0.3187 1.315093,0.55013 2.0428,0.51914 0.510921,-0.0218 0.680268,-0.10025 1.172374,-0.23774 0.968103,-0.39346 1.86132,-0.95839 2.68555,-1.5972 0.231722,-0.17812 0.422137,-0.39355 0.589002,-0.63119 0.01479,-0.0211 0.06627,-0.0771 0.04493,-0.0628 -0.07317,0.0492 -0.135524,0.11286 -0.203287,0.16929 0.673182,-0.21639 0.367152,-1.16841 -0.30603,-0.95202 v 0 c -0.101568,0.0673 -0.208629,0.12697 -0.30471,0.2019 -0.015,0.0117 -0.08273,0.12125 -0.09864,0.14358 -0.05499,0.0772 -0.09341,0.12147 -0.166323,0.19117 -0.05453,0.0521 -0.112567,0.10044 -0.168852,0.15066 -0.722452,0.56411 -1.508625,1.05786 -2.348992,1.42581 -0.367776,0.11067 -0.490508,0.1705 -0.869243,0.19883 -0.578774,0.0433 -1.104448,-0.16094 -1.615456,-0.41092 -0.705308,-0.35727 -1.449829,-0.72387 -1.918748,-1.38512 -0.445241,-0.74739 -0.733105,-1.52843 -0.766897,-2.40695 -0.03647,-0.81109 -0.08921,-1.3685517 0.384421,-2.0706417 0.162573,-0.204351 0.2726,-0.357608 0.463346,-0.53762 0.318447,-0.300519 0.701707,-0.515403 1.103892,-0.681879 0.288018,-0.08187 0.571315,-0.141105 0.870678,-0.08086 0.25736,0.05832 0.496514,0.167889 0.706744,0.329041 0.527447,0.387197 0.961012,0.882354 1.437008,1.328124 0.69945,0.6848557 1.400767,1.3692957 2.030126,2.1207257 0.560893,0.65426 1.113523,1.31506 1.635768,2.00067 0.499999,0.5 1.207106,-0.2071 0.707107,-0.7071 z" />
    <path
       style="fill:#1a2a4f;fill-opacity:1;fill-rule:evenodd;stroke:#1a2a4f;stroke-width:1;stroke-linecap:square;stroke-linejoin:round;stroke-dasharray:none;stroke-dashoffset:0;stroke-opacity:1;paint-order:stroke fill markers"
       id="path9546"
       d="m -57.259232,-1.0063583 c 0.273608,0.41060998 0.447251,0.87938998 0.706596,1.29757998 0.07258,0.11702 0.156207,0.22681 0.234312,0.34022 0.530763,0.73883002 1.294289,1.22743002 2.077369,1.66033002 0.280998,0.14301 0.535606,0.2884 0.843113,0.37488 0.596947,0.16787 1.24315,0.18044 1.85307,0.0835 0.212564,-0.0338 0.419515,-0.0965 0.629274,-0.1447 0.199716,-0.0749 0.404133,-0.13831 0.599152,-0.22472 0.656333,-0.29079 1.434841,-0.78868 1.882103,-1.36058 0.110424,-0.14119002 0.191561,-0.30302002 0.28734,-0.45454002 0.05466,-0.16936 0.134329,-0.3326 0.163976,-0.50808 0.176982,-1.04748 -0.57948,-1.85529998 -1.231556,-2.55703998 -0.538158,-0.48877 -1.114976,-0.96316 -1.794018,-1.24406 -0.361233,-0.14944 -0.525016,-0.17108 -0.899062,-0.25669 -0.829612,-0.13717 -1.667079,0.0273 -2.431132,0.36362 -0.149395,0.0658 -0.292008,0.14597 -0.43801,0.21896 -0.51684,0.27241 -0.991761,0.61267 -1.455338,0.96586 -0.562253,0.4288 0.04416,1.22395 0.606417,0.79515 v 0 c 0.414692,-0.3166 0.838698,-0.62293 1.300356,-0.86871 0.682302,-0.35036 1.420984,-0.61915 2.199854,-0.4989 0.256664,0.0554 0.434187,0.0826 0.679476,0.17995 0.569344,0.22595 1.047158,0.62778 1.500857,1.02762 0.351372,0.37348 1.037437,1.01923998 1.001006,1.59820998 -0.0057,0.0908 -0.039,0.17773 -0.0585,0.2666 -0.05431,0.0967 -0.09716,0.20072 -0.162946,0.28998 -0.178205,0.24179 -0.395859,0.41591 -0.637482,0.5915 -0.411826,0.29926002 -0.859515,0.54286002 -1.343795,0.70299002 -0.164319,0.0407 -0.326191,0.093 -0.492958,0.1221 -0.447225,0.078 -0.955487,0.0947 -1.399098,-0.0213 -0.259567,-0.0679 -0.48305,-0.19744 -0.719707,-0.31748 -0.64998,-0.35639 -1.295013,-0.74938002 -1.740513,-1.35782002 -0.05844,-0.0817 -0.122148,-0.1598 -0.175308,-0.24498 -0.270981,-0.43426 -0.449561,-0.92374998 -0.736849,-1.34937998 -0.374766,-0.59962 -1.222764,-0.0696 -0.847997,0.53 z" />
    <path
       style="fill:#1a2a4f;fill-opacity:1;fill-rule:evenodd;stroke:#1a2a4f;stroke-width:1;stroke-linecap:square;stroke-linejoin:round;stroke-dasharray:none;stroke-dashoffset:0;stroke-opacity:1;paint-order:stroke fill markers"
       id="path9548"
       d="m -66.883707,11.441262 c 0.37733,0.62489 0.779031,1.23236 1.204147,1.8256 0.586092,0.82589 1.378017,1.39907 2.216844,1.94082 0.771554,0.51039 1.61903,0.86957 2.521317,1.07276 0.17421,0.0392 0.351229,0.0647 0.526841,0.0971 1.224278,0.16935 1.882622,-0.19632 2.814625,-0.9251 0.588147,-0.51403 1.108395,-1.12374 1.467654,-1.82162 0.06561,-0.12746 0.117213,-0.26165 0.175821,-0.39247 0.03621,-0.13782 0.0909,-0.27207 0.108643,-0.41345 0.08287,-0.66053 -0.23268,-1.24328 -0.693912,-1.69209 -0.124722,-0.12136 -0.266425,-0.22396 -0.399637,-0.33594 -0.828276,-0.62782 -1.802517,-0.9563703 -2.778864,-1.2685003 -0.667213,-0.23006 -1.33382,-0.46077 -2.008788,-0.66734 -0.407921,-0.104 -0.84052,-0.2011 -1.264576,-0.14796 -0.125283,0.0157 -0.24766,0.0493 -0.371488,0.074 -0.940189,0.2569 -1.764242,0.71979 -2.586498,1.2291403 -0.370543,0.235 -0.738568,0.47421 -1.104225,0.71676 -0.08449,0.056 -0.356402,0.23686 -0.443484,0.31554 -0.06893,0.0623 -0.127778,0.13487 -0.191667,0.20231 -0.467781,0.53027 0.282128,1.19181 0.749909,0.66154 v 0 c 0.101182,-0.14768 0.285578,-0.24501 0.430744,-0.34128 0.359601,-0.23848 0.721466,-0.47378 1.085755,-0.70502 0.718576,-0.44616 1.45225,-0.8671803 2.271519,-1.1017303 0.07063,-0.0175 0.14015,-0.0404 0.211892,-0.0526 0.305525,-0.052 0.624705,0.0373 0.919665,0.10563 0.671049,0.2050603 1.333254,0.4356503 1.996765,0.6635703 0.85521,0.27334 1.714156,0.54771 2.447171,1.08753 0.277646,0.22294 0.783122,0.60164 0.75815,1.01972 -0.005,0.0842 -0.03496,0.16505 -0.05244,0.24758 -0.308385,0.71871 -0.756796,1.31741 -1.347134,1.83134 -0.683686,0.54409 -1.105967,0.84921 -2.017125,0.72654 -0.99277,-0.17674 -1.842342,-0.45606 -2.684778,-1.02637 -0.727887,-0.46837 -1.438058,-0.9662 -1.945933,-1.68294 -0.419241,-0.58473 -0.813427,-1.18458 -1.186389,-1.79999 -0.393846,-0.58727 -1.22437,-0.0303 -0.830527,0.55698 z" />
    <path
       style="fill:#fff2ef;fill-opacity:1;fill-rule:evenodd;stroke:#fff2ef;stroke-width:1.34182;stroke-linecap:square;stroke-linejoin:round;stroke-dasharray:none;stroke-dashoffset:0;stroke-opacity:1;paint-order:stroke fill markers"
       id="path9707"
       d="m 119.76228,26.651946 c -1.71178,-1.249207 -3.5255,-2.355425 -5.50489,-3.117683 -1.88306,-0.617458 -2.9614,-0.359736 -4.79665,0.28024 -3.06094,1.195808 -5.9734,2.752517 -8.62273,4.698925 -1.915341,1.457668 -1.967181,2.849963 -1.913791,5.134811 0.297699,2.455213 1.162201,4.857676 2.781021,6.757444 0.29272,0.343522 0.6321,0.644178 0.94813,0.966273 1.28766,1.168286 2.87532,1.865768 4.40103,2.650433 2.612,1.343338 0.15775,0.11123 3.07171,1.558798 2.71959,1.511567 5.76221,2.4422 8.40141,4.103846 0.39161,0.246545 0.75101,0.541075 1.1265,0.811626 0.84604,0.806266 2.46935,2.267779 2.2558,3.632705 -0.0308,0.197405 -0.14569,0.372001 -0.21854,0.558001 -1.61884,1.821787 -4.14623,2.137582 -6.43417,2.378203 -2.6981,0.06999 -5.47441,-0.168322 -8.04271,-1.054854 -0.57229,-0.19754 -1.12476,-0.448652 -1.68714,-0.672979 -1.84405,-0.985361 -4.2704,-1.78252 -5.565162,-3.538898 -0.81962,-1.111825 -0.73277,-1.518538 -0.993139,-2.871414 -0.0248,-2.331307 -0.0921,-1.186583 0.188739,-3.434937 0.0121,-0.114319 -1.600299,-0.285583 -1.612389,-0.171318 v 0 c -0.32219,2.533239 -0.25416,1.235736 -0.17976,3.893692 0.39131,1.698627 0.30311,2.144069 1.32989,3.546018 1.439301,1.965162 3.871281,2.884915 5.948491,3.959959 1.43479,0.571959 2.0632,0.881185 3.55063,1.249814 2.4831,0.615376 5.07601,0.780528 7.62069,0.59896 2.29228,-0.331929 4.97355,-0.738051 6.63413,-2.556371 0.26518,-0.290366 0.44593,-0.648114 0.66889,-0.97217 0.0822,-0.337383 0.21692,-0.666115 0.2466,-1.012135 0.16,-1.865405 -1.41019,-3.455651 -2.59599,-4.644571 -0.40954,-0.313471 -0.79955,-0.654374 -1.22861,-0.940427 -2.62081,-1.747351 -5.68604,-2.720784 -8.45423,-4.189188 -2.46121,-1.147814 -5.02128,-2.201042 -7.2136,-3.827666 -0.27919,-0.27661 -0.578,-0.534654 -0.83757,-0.829829 -1.46911,-1.670632 -2.24562,-3.825717 -2.5781,-5.999348 -0.11084,-1.962921 -0.28579,-2.817999 1.43287,-3.982853 2.64309,-1.755535 5.48082,-3.199915 8.37434,-4.492611 1.25505,-0.508405 1.89784,-0.786877 3.20911,-0.339158 1.8783,0.735719 3.55519,1.8429 5.28152,2.873952 0.0709,0.07141 1.07858,-0.933874 1.00767,-1.00529 z" />
    <path
       style="fill:#fff2ef;fill-opacity:1;fill-rule:evenodd;stroke:#fff2ef;stroke-width:1.34182;stroke-linecap:square;stroke-linejoin:round;stroke-dasharray:none;stroke-dashoffset:0;stroke-opacity:1;paint-order:stroke fill markers"
       id="path9709"
       d="m 129.71805,41.423245 c -0.003,2.899894 0.27142,5.770797 0.98272,8.582043 0.73579,2.214273 2.52335,3.458432 4.52433,4.427002 0.0855,0.0622 0.96286,-1.149224 0.87739,-1.211408 v 0 c -1.23744,-0.593748 -2.62803,-1.320219 -3.40919,-2.504505 -0.20696,-0.313739 -0.31846,-0.681159 -0.47769,-1.021739 -0.64964,-2.761515 -0.82905,-5.57499 -1.07959,-8.393893 -0.008,-0.100483 -1.42662,0.02203 -1.41797,0.122514 z" />
    <path
       style="fill:#fff2ef;fill-opacity:1;fill-rule:evenodd;stroke:#fff2ef;stroke-width:1.34182;stroke-linecap:square;stroke-linejoin:round;stroke-dasharray:none;stroke-dashoffset:0;stroke-opacity:1;paint-order:stroke fill markers"
       id="path9715"
       d="m 130.53702,37.827778 c 0.87144,0.312826 2.66875,1.198458 3.23804,-0.08221 0.31706,-0.713279 -0.009,-1.331329 -0.21724,-1.983405 -0.76406,-1.406367 -1.75593,-2.731781 -3.27567,-3.340787 -0.27557,-0.0091 -0.58102,-0.152855 -0.82668,-0.0274 -1.18053,0.602857 -0.27116,2.144511 0.17013,2.860606 0.094,0.123722 0.18805,0.247432 0.28207,0.371154 0.0524,0.08463 1.24579,-0.657789 1.19342,-0.742371 v 0 c -0.0718,-0.08988 -0.14361,-0.179764 -0.21541,-0.269648 -0.0488,-0.077 -0.63212,-1.099572 -0.64137,-1.097322 -0.72935,0.177341 0.0261,0.270023 -0.67263,0.114803 1.21542,0.302921 1.89399,1.636641 2.57889,2.563918 0.0925,0.206889 0.1571,0.428637 0.27729,0.620655 0.10414,0.166441 1.22002,0.443561 -0.43733,0.02391 -0.22465,-0.05682 -0.44747,-0.120767 -0.67121,-0.181165 -0.0824,-0.05548 -0.8648,1.113881 -0.7823,1.169334 z" />
    <path
       style="fill:#fff2ef;fill-opacity:1;fill-rule:evenodd;stroke:#fff2ef;stroke-width:1.34182;stroke-linecap:square;stroke-linejoin:round;stroke-dasharray:none;stroke-dashoffset:0;stroke-opacity:1;paint-order:stroke fill markers"
       id="path9717"
       d="m 139.53906,42.501769 c 1.15368,3.528595 2.42397,7.013074 3.04526,10.683434 -0.16525,-0.2538 0.28935,2.02173 -0.15324,1.836778 -0.11715,-0.04903 -0.12854,-0.219437 -0.19281,-0.329148 -0.0966,0.03157 0.34908,1.400672 0.44568,1.369076 v 0 c 0.34007,-0.140675 0.7292,-0.196465 1.02023,-0.422027 0.60588,-0.469568 0.4529,-2.065403 0.44821,-2.654194 -0.0697,-0.518735 -0.11446,-1.041433 -0.20893,-1.556206 -0.59277,-3.229645 -1.80329,-6.322605 -2.95928,-9.379456 -0.0319,-0.102363 -1.47699,0.349326 -1.44512,0.451743 z" />
    <path
       style="fill:#fff2ef;fill-opacity:1;fill-rule:evenodd;stroke:#fff2ef;stroke-width:1.34182;stroke-linecap:square;stroke-linejoin:round;stroke-dasharray:none;stroke-dashoffset:0;stroke-opacity:1;paint-order:stroke fill markers"
       id="path9719"
       d="m 141.70855,43.29749 c 1.7113,0.266709 3.37534,0.666813 4.96729,1.353185 1.57051,0.690039 2.77217,1.965122 3.39397,3.577251 0.17488,0.453395 0.26077,0.936397 0.39114,1.404608 0.0344,0.510729 0.12478,1.020746 0.10347,1.5322 -0.0727,1.735624 -0.71831,3.709626 -2.29676,4.633408 -0.30777,0.180117 -0.66147,0.266145 -0.9922,0.399231 -1.12464,0.27759 -2.26889,0.213109 -3.41008,0.139319 -0.10682,-0.03103 -0.54509,1.482321 -0.43832,1.513393 v 0 c 1.60382,0.03614 3.18203,0.136619 4.72931,-0.390244 1.11576,-0.556617 1.52738,-0.622643 2.36331,-1.61499 1.10147,-1.307578 1.60973,-3.099408 1.64636,-4.78565 0.0134,-0.602802 -0.10468,-1.201319 -0.15705,-1.801972 -0.16515,-0.552077 -0.27656,-1.123257 -0.49544,-1.656218 -0.76055,-1.851958 -2.20815,-3.325011 -4.00134,-4.169509 -1.69664,-0.776605 -3.46246,-1.283492 -5.32473,-1.47152 -0.0944,-0.03399 -0.57325,1.303561 -0.47889,1.337508 z" />
    <path
       style="fill:#fff2ef;fill-opacity:1;fill-rule:evenodd;stroke:#fff2ef;stroke-width:1.34182;stroke-linecap:square;stroke-linejoin:round;stroke-dasharray:none;stroke-dashoffset:0;stroke-opacity:1;paint-order:stroke fill markers"
       id="path9721"
       d="m 156.87262,44.628482 c -0.054,2.283067 -0.62454,4.594411 -0.13587,6.868208 0.0871,0.405289 0.25794,0.787836 0.38692,1.18176 0.21735,0.323036 0.38509,0.685902 0.65206,0.969121 1.41197,1.497944 4.33066,1.475698 6.23112,1.600066 1.49636,0.08409 2.9943,0.05709 4.49134,0.02055 0.0994,-0.02687 -0.27946,-1.436688 -0.3789,-1.409834 v 0 c -1.21486,-0.02149 -2.43025,-0.03358 -3.64332,-0.110961 -0.91615,-0.05467 -1.91889,-0.108005 -2.83334,-0.18819 -0.81244,-0.0712 -1.90364,-0.08087 -2.57122,-0.65925 -0.19798,-0.171505 -0.32262,-0.413013 -0.48394,-0.619527 -0.10093,-0.312195 -0.23784,-0.614905 -0.30264,-0.936571 -0.45361,-2.25186 0.21384,-4.538823 -0.001,-6.803015 -0.007,-0.09995 -1.41691,-0.01209 -1.41073,0.08759 z" />
    <path
       style="fill:#fff2ef;fill-opacity:1;fill-rule:evenodd;stroke:#fff2ef;stroke-width:1.34182;stroke-linecap:square;stroke-linejoin:round;stroke-dasharray:none;stroke-dashoffset:0;stroke-opacity:1;paint-order:stroke fill markers"
       id="path9723"
       d="m 156.0406,42.094357 c 2.89581,0.713978 5.89843,0.631751 8.84791,0.399096 1.20456,-0.150039 0.8031,-0.302455 1.28483,-0.08853 0.0946,0.03869 0.64075,-1.301855 0.54618,-1.34057 v 0 c -1.55018,-0.207911 -0.77967,-0.187089 -2.31129,-0.0712 -2.58491,0.161054 -5.17181,0.21409 -7.7445,-0.167623 -0.0895,-0.0442 -0.71263,1.224639 -0.62313,1.268795 z" />
    <path
       style="fill:#fff2ef;fill-opacity:1;fill-rule:evenodd;stroke:#fff2ef;stroke-width:1.34182;stroke-linecap:square;stroke-linejoin:round;stroke-dasharray:none;stroke-dashoffset:0;stroke-opacity:1;paint-order:stroke fill markers"
       id="path9727"
       d="m 159.32809,48.972546 c 2.08854,-0.07079 4.17591,-0.170136 6.26374,-0.258918 0.104,-0.02982 -0.31706,-1.5045 -0.4211,-1.474651 v 0 c -2.11036,0.04876 -4.22717,0.109349 -6.32125,0.395711 -0.0944,0.03385 0.38421,1.371777 0.47861,1.337858 z" />
    <path
       style="fill:#fff2ef;fill-opacity:1;fill-rule:evenodd;stroke:#fff2ef;stroke-width:1.34182;stroke-linecap:square;stroke-linejoin:round;stroke-dasharray:none;stroke-dashoffset:0;stroke-opacity:1;paint-order:stroke fill markers"
       id="path9733"
       d="m 86.425598,66.063606 c -2.046059,2.75285 -3.362189,6.207977 -3.5256,9.655031 -0.03721,0.784762 0.07144,1.569655 0.107156,2.354468 0.229921,0.753405 0.375375,1.538128 0.689759,2.260238 1.165935,2.67801 3.529476,4.87445 6.171756,6.05374 0.64152,0.286325 1.32743,0.459835 1.99114,0.689755 2.68053,0.61952 5.42696,0.53041 7.851399,-0.880525 1.220942,-0.71052 2.068152,-1.53244 3.130942,-2.45164 2.03228,-2.11454 4.52747,-4.649546 4.97987,-7.701144 0.074,-0.499071 0.0173,-1.00894 0.026,-1.513396 -0.13175,-0.483996 -0.20798,-0.986705 -0.39518,-1.451961 -1.0848,-2.696282 -3.60464,-4.397193 -5.92864,-5.921239 -1.956082,-1.136489 -3.964891,-2.24235 -6.131861,-2.926116 -1.22374,-0.386133 -1.50917,-0.388 -2.7517,-0.590403 -2.29962,-0.31871 -4.49422,0.111364 -6.594017,1.028067 -1.052141,0.527024 -3.420242,1.979496 -3.558594,3.310261 -0.03344,0.321652 0.08725,0.640846 0.130866,0.961275 0.0228,0.09887 1.417151,-0.224541 1.394338,-0.323358 v 0 c -0.255642,-0.211054 -0.274564,-0.131514 0.01139,-0.550425 0.68115,-0.997882 1.828694,-1.596641 2.855977,-2.155072 1.64947,-0.698637 3.39155,-1.053846 5.18609,-0.830796 1.0708,0.156393 1.45444,0.170834 2.50641,0.49876 2.07672,0.647361 3.97968,1.744853 5.875421,2.786017 2.06894,1.289228 4.42419,2.782444 5.50112,5.083297 0.15803,0.337611 0.23024,0.709222 0.34536,1.063827 -0.004,0.391721 0.0482,0.787902 -0.0107,1.175164 -0.40003,2.631991 -2.92254,5.145092 -4.68485,6.966602 -0.84944,0.74281 -1.796562,1.65452 -2.793761,2.221 -1.88712,1.07202 -4.05072,1.15648 -6.12817,0.75885 -0.59574,-0.18251 -1.21072,-0.31091 -1.78719,-0.54752 -2.33535,-0.95854 -4.486606,-2.88076 -5.564488,-5.18497 -0.281104,-0.60092 -0.417866,-1.25958 -0.626796,-1.889357 -0.02777,-0.699026 -0.1206,-1.398509 -0.08331,-2.097082 0.16632,-3.115434 1.373621,-6.473356 3.023424,-9.106164 0.0526,-0.08598 -1.161074,-0.831199 -1.213646,-0.745184 z" />
    <path
       style="fill:#fff2ef;fill-opacity:1;fill-rule:evenodd;stroke:#fff2ef;stroke-width:1.34182;stroke-linecap:square;stroke-linejoin:round;stroke-dasharray:none;stroke-dashoffset:0;stroke-opacity:1;paint-order:stroke fill markers"
       id="path9737"
       d="m 98.335209,78.138862 c 2.611901,2.077311 5.060611,4.367151 7.237181,6.902121 1.26705,1.47567 1.80168,2.268845 2.908,3.790805 -0.38683,-0.76069 2.05162,3.25885 1.35997,2.67316 -0.0379,0.0912 1.24938,0.62884 1.28731,0.5376 v 0 c 0.0743,-0.22837 0.20528,-0.44556 0.22278,-0.68512 0.0881,-1.20601 -0.93905,-2.3675 -1.39902,-3.35645 -1.09397,-1.627905 -1.59763,-2.460445 -2.90443,-4.018205 -2.23588,-2.66525 -4.83378,-5.009085 -7.719252,-6.947689 -0.0779,-0.07039 -1.070409,1.033427 -0.992539,1.103778 z" />
    <path
       style="fill:#fff2ef;fill-opacity:1;fill-rule:evenodd;stroke:#fff2ef;stroke-width:1.34182;stroke-linecap:square;stroke-linejoin:round;stroke-dasharray:none;stroke-dashoffset:0;stroke-opacity:1;paint-order:stroke fill markers"
       id="path9743"
       d="m 113.8689,69.794631 c -1.1116,2.080395 -1.60161,4.499919 -1.31284,6.853554 0.0641,0.522564 0.21209,1.031331 0.31812,1.54699 0.76352,2.473238 2.40962,4.299148 4.87703,5.133248 0.47867,0.16181 0.98034,0.24484 1.4705,0.36726 1.66513,0.23866 5.16691,0.87504 6.64751,10e-4 0.323,-0.1905 0.55932,-0.5001 0.83898,-0.75015 0.20024,-0.40234 0.44994,-0.78354 0.60073,-1.20699 0.82274,-2.31045 0.58436,-5.385946 0.50299,-7.808804 -0.0937,-1.42668 -0.0905,-2.856328 -0.0863,-4.285104 10e-4,-0.10908 -1.53676,-0.131379 -1.53833,-0.0223 v 0 c -0.0452,1.451182 -0.0783,2.903896 0.0334,4.353735 0.0824,2.329334 0.29565,4.953934 -0.32835,7.226483 -0.0749,0.2728 -0.20801,0.52607 -0.31203,0.7891 -0.14194,0.13299 -0.25288,0.3102 -0.42583,0.39895 -1.18591,0.60871 -3.99233,0.003 -5.26287,-0.11553 -3.0208,-0.63726 -4.36156,-1.31659 -5.46719,-4.35363 -0.0949,-0.446705 -0.22579,-0.88723 -0.28461,-1.340128 -0.27159,-2.09105 0.1513,-4.230203 0.99444,-6.143109 0.0456,-0.0896 -1.21986,-0.735028 -1.26538,-0.64536 z" />
    <path
       style="fill:#fff2ef;fill-opacity:1;fill-rule:evenodd;stroke:#fff2ef;stroke-width:1.34182;stroke-linecap:square;stroke-linejoin:round;stroke-dasharray:none;stroke-dashoffset:0;stroke-opacity:1;paint-order:stroke fill markers"
       id="path9745"
       d="m 134.01123,71.211074 c 0.0193,2.784687 0.27743,5.560619 0.8423,8.286889 0.25089,0.73456 0.43197,1.48118 0.90405,2.11742 1.14681,1.54555 3.1988,1.75491 4.94331,2.0265 1.81087,0.22068 3.63745,0.15779 5.45038,0.008 1.17712,-0.0969 2.24182,-0.22907 3.34859,-0.63436 0.12961,-0.28888 0.45734,-0.55742 0.38881,-0.86662 -0.2083,-0.93965 -1.41461,-1.55041 -2.08201,-2.00296 -0.0835,-0.0731 -1.11442,1.11006 -1.03096,1.18312 v 0 c 0.72568,0.40874 1.31159,1.04974 2.0244,0.40555 -2.4475,0.57515 -5.04122,0.5042 -7.53468,0.41893 -1.00873,-0.1127 -3.43383,-0.24097 -4.1454,-1.13702 -0.35998,-0.45329 -0.55959,-1.27047 -0.72388,-1.7761 -0.5049,-2.677896 -0.73928,-5.39018 -0.97485,-8.103186 -0.005,-0.09995 -1.41523,-0.02673 -1.41006,0.07321 z" />
    <path
       style="fill:#fff2ef;fill-opacity:1;fill-rule:evenodd;stroke:#fff2ef;stroke-width:1.34182;stroke-linecap:square;stroke-linejoin:round;stroke-dasharray:none;stroke-dashoffset:0;stroke-opacity:1;paint-order:stroke fill markers"
       id="path9749"
       d="m 135.69746,69.020323 c 2.99491,0.625934 6.06764,0.746406 9.11646,0.851631 0.75423,-0.09014 2.9552,0.285717 3.54799,-0.257574 0.20078,-0.184013 0.26081,-0.478623 0.39122,-0.717941 0.0121,-0.09605 -1.34317,-0.268066 -1.3553,-0.172016 v 0 c 0.11419,-0.131783 0.37776,-0.224273 0.34256,-0.395161 -0.0281,-0.136565 -0.27622,0.03641 -0.41521,0.04245 -0.58034,0.02566 -1.61903,-0.03117 -2.06298,-0.04702 -3.02293,-0.121708 -6.05064,-0.270067 -9.05744,-0.613374 -0.0924,-0.036 -0.59965,1.272933 -0.5073,1.308894 z" />
    <path
       style="fill:#fff2ef;fill-opacity:1;fill-rule:evenodd;stroke:#fff2ef;stroke-width:1.34182;stroke-linecap:square;stroke-linejoin:round;stroke-dasharray:none;stroke-dashoffset:0;stroke-opacity:1;paint-order:stroke fill markers"
       id="path9751"
       d="m 136.92109,77.089624 c 2.71043,0.606416 5.48248,0.732919 8.248,0.656657 0.37992,-0.05333 1.2374,-0.106393 1.61396,-0.37184 0.18614,-0.131245 0.2882,-0.353046 0.43231,-0.529576 0.0484,-0.08544 -1.15781,-0.771272 -1.2062,-0.685794 v 0 c 0.53802,-0.28388 -1.75921,0.625881 -1.25317,0.105856 -2.42983,0.05051 -4.84493,-0.182683 -7.25488,-0.482199 -0.0922,-0.04111 -0.67222,1.265776 -0.58002,1.306882 z" />
    <path
       style="fill:#fff2ef;fill-opacity:1;fill-rule:evenodd;stroke:#fff2ef;stroke-width:1.34182;stroke-linecap:square;stroke-linejoin:round;stroke-dasharray:none;stroke-dashoffset:0;stroke-opacity:1;paint-order:stroke fill markers"
       id="path9753"
       d="m 135.02085,68.358534 c -0.68725,0.887055 -1.22255,1.871638 -1.69385,2.886097 -0.0382,0.09578 1.31247,0.637595 1.35069,0.541868 v 0 c 0.47754,-0.936504 1.00006,-1.84774 1.57108,-2.730618 0.0492,-0.08705 -1.17872,-0.784369 -1.22792,-0.697347 z" />
    <path
       style="fill:#fff2ef;fill-opacity:1;fill-rule:evenodd;stroke:#fff2ef;stroke-width:1.34182;stroke-linecap:square;stroke-linejoin:round;stroke-dasharray:none;stroke-dashoffset:0;stroke-opacity:1;paint-order:stroke fill markers"
       id="path9765"
       d="m 165.50526,68.788715 c -1.42874,-0.321813 -2.86946,-0.587098 -4.32557,-0.745143 -0.73425,-0.08772 -1.47048,-0.03533 -2.20555,-0.004 -0.72821,0.01827 -1.45695,0.01075 -2.18539,0.01437 0.22571,0.08356 -0.45202,-0.01679 -0.66736,0.0407 -0.86111,0.23021 -1.09779,1.556407 -1.35909,2.262594 -0.48262,1.223202 -0.72584,2.433844 -0.25633,3.685713 0.6884,1.115667 1.94475,1.489146 3.12069,1.877858 0.85951,0.363702 1.77061,0.546613 2.66755,0.784628 1.14843,0.218294 2.20851,0.716047 3.25686,1.215061 0.7706,0.490243 1.97735,0.893974 2.34097,1.836957 0.0482,0.12506 0.0395,0.26525 0.0594,0.39789 -0.43954,1.67166 -1.70024,2.80862 -3.15306,3.61902 -0.27427,0.0837 -0.54046,0.20117 -0.82282,0.2509 -1.91382,0.33708 -3.94525,-0.14794 -5.80082,-0.55929 -1.96657,-0.59239 -4.00376,-1.27734 -5.62642,-2.58262 -0.0655,-0.0766 -1.14667,0.8517 -1.08118,0.92834 v 0 c 1.65483,1.60425 3.86656,2.44028 6.04312,3.07755 2.69421,0.62022 5.60601,1.17819 8.23739,0.0296 1.92953,-1.16464 3.43508,-2.64585 3.61729,-5.01801 -0.0647,-0.26191 -0.0941,-0.53528 -0.1943,-0.785725 -0.46962,-1.173511 -1.74995,-1.78659 -2.76189,-2.384717 -1.10904,-0.533459 -2.25115,-1.060028 -3.47099,-1.273702 -0.87518,-0.250051 -1.77296,-0.400681 -2.60808,-0.782395 -0.85464,-0.272042 -1.79473,-0.506981 -2.49423,-1.091097 -0.45645,-0.908939 0.0374,-1.920858 0.32271,-2.809311 0.0265,-0.07657 0.37396,-1.066957 0.41394,-1.225943 0.0583,-0.232104 -0.17094,-0.137492 -0.12344,-0.137599 0.22987,-3.49e-4 0.45974,0.0027 0.68961,0.004 0.74532,0.0027 1.49098,-0.004 2.23514,-0.04957 0.66447,-0.03842 0.6564,-0.04164 1.31919,0.02257 1.44832,0.180627 2.87539,0.489503 4.31604,0.719861 0.093,0.0352 0.5896,-1.283505 0.49657,-1.318701 z" />
    <path
       style="fill:#fff2ef;fill-opacity:1;fill-rule:evenodd;stroke:#fff2ef;stroke-width:1.34182;stroke-linecap:square;stroke-linejoin:round;stroke-dasharray:none;stroke-dashoffset:0;stroke-opacity:1;paint-order:stroke fill markers"
       id="path9767"
       d="m 175.23209,69.859488 c 0.18985,0.181916 0.40877,0.33757 0.56953,0.545736 1.57848,2.044017 2.1025,4.689923 2.38431,7.186558 0.23297,2.487461 -0.27449,4.936591 -0.52854,7.395151 -0.14099,1.04259 0.23976,1.60102 0.92335,2.308205 0.53545,-1.422395 0.79212,-0.947105 -0.23563,-1.604055 -0.0803,-0.0682 -1.04329,1.069285 -0.96304,1.137545 v 0 c 1.40188,0.79785 0.62141,0.70959 2.33511,-0.315635 -0.38975,-0.48336 -0.81914,-0.6394 -0.6227,-1.36086 0.43814,-2.54832 0.94671,-5.10714 0.68533,-7.71 -0.0626,-0.568225 -0.0958,-1.140452 -0.18761,-1.704662 -0.35963,-2.210015 -1.15129,-4.606232 -2.66461,-6.310986 -0.24489,-0.275857 -0.56833,-0.470025 -0.85248,-0.705045 -0.0803,-0.05978 -0.92331,1.078309 -0.84302,1.138048 z" />
    <path
       style="fill:#fff2ef;fill-opacity:1;fill-rule:evenodd;stroke:#fff2ef;stroke-width:1.34182;stroke-linecap:square;stroke-linejoin:round;stroke-dasharray:none;stroke-dashoffset:0;stroke-opacity:1;paint-order:stroke fill markers"
       id="path9769"
       d="m 172.83299,78.218684 c 3.07443,0.583122 6.06028,-0.591625 8.95709,-1.474436 1.05352,-0.333863 2.11253,-0.647334 3.18274,-0.922281 0.0937,-0.04393 -0.52528,-1.37269 -0.61902,-1.328816 v 0 c -1.12323,0.220269 -2.23126,0.500331 -3.3284,0.829143 -1.12392,0.328154 -2.24251,0.675169 -3.37158,0.985069 -0.12759,0.03506 -2.22121,0.59575 -2.65782,0.62482 -0.8371,0.05575 -1.67681,-0.19312 -2.51529,-0.08866 -0.097,0.02499 0.25526,1.400121 0.35228,1.375161 z" />
    <path
       style="fill:#1a2a4f;fill-opacity:1;fill-rule:evenodd;stroke:#1a2a4f;stroke-width:1;stroke-linecap:square;stroke-linejoin:round;stroke-dasharray:none;stroke-dashoffset:0;stroke-opacity:1;paint-order:stroke fill markers"
       id="path9801"
       d="m -109.24579,-1.7024793 c 1.38294,0.33088 2.68633,0.90498898 4.00479,1.42357798 0.61499,0.263829 1.23517,0.507923 1.86315,0.738555 0.0141,0.0035 0.0283,0.007 0.0424,0.01053 0.0539,0.04761 0.72723,-0.714912 0.67331,-0.762521 v 0 c -0.0472,-0.03509 -0.0943,-0.07018 -0.14149,-0.105264 -0.60192,-0.287478 -1.25259,-0.46926 -1.83727,-0.79949998 -1.37681,-0.590886 -2.75044,-1.224044 -4.23676,-1.48931 -0.0696,-0.02603 -0.43772,0.9579 -0.36814,0.983932 z" />
    <path
       style="fill:#1a2a4f;fill-opacity:1;fill-rule:evenodd;stroke:#1a2a4f;stroke-width:1;stroke-linecap:square;stroke-linejoin:round;stroke-dasharray:none;stroke-dashoffset:0;stroke-opacity:1;paint-order:stroke fill markers"
       id="path9803"
       d="m -97.677554,-31.130529 c 0.395515,1.157197 0.794869,2.311222 1.134757,3.486467 0.01743,0.07639 1.0978,-0.170037 1.080375,-0.24643 v 0 c -0.313738,-1.213242 -0.704174,-2.401266 -1.208644,-3.549989 -0.02192,-0.07117 -1.028405,0.238781 -1.006488,0.309952 z" />
    <path
       style="fill:#1a2a4f;fill-opacity:1;fill-rule:evenodd;stroke:#1a2a4f;stroke-width:1;stroke-linecap:square;stroke-linejoin:round;stroke-dasharray:none;stroke-dashoffset:0;stroke-opacity:1;paint-order:stroke fill markers"
       id="path9807"
       d="m -58.844009,-35.967073 c -0.552773,1.227315 -0.951127,2.508395 -1.334633,3.795199 -0.166311,0.375738 -0.151635,0.792628 -0.246007,1.181717 -0.01154,0.07196 1.006198,0.235214 1.017741,0.163247 v 0 c 0.05879,-0.36395 0.112565,-0.723386 0.266222,-1.06499 0.438271,-1.252085 0.858877,-2.51079 1.301326,-3.761443 0.02217,-0.07104 -0.982467,-0.384771 -1.004649,-0.31373 z" />
    <path
       style="fill:#1a2a4f;fill-opacity:1;fill-rule:evenodd;stroke:#1a2a4f;stroke-width:1;stroke-linecap:square;stroke-linejoin:round;stroke-dasharray:none;stroke-dashoffset:0;stroke-opacity:1;paint-order:stroke fill markers"
       id="path9809"
       d="m -38.943385,-16.518865 c 1.382141,-0.01431 2.746378,-0.230664 4.103608,-0.471662 0.50192,-0.16877 1.060019,-0.221782 1.477854,-0.562118 0.04999,-0.05199 -0.685254,-0.759015 -0.735247,-0.707025 v 0 c -0.377926,0.09286 -0.754198,0.208661 -1.140146,0.270693 -1.353669,0.174384 -2.708322,0.333801 -4.065365,0.476795 -0.07024,0.0254 0.289057,1.018725 0.359296,0.993317 z" />
    <path
       style="fill:#1a2a4f;fill-opacity:1;fill-rule:evenodd;stroke:#1a2a4f;stroke-width:1;stroke-linecap:square;stroke-linejoin:round;stroke-dasharray:none;stroke-dashoffset:0;stroke-opacity:1;paint-order:stroke fill markers"
       id="path9811"
       d="m -54.483282,29.539583 c 1.853933,0.68428 2.780292,2.484861 3.734975,4.086471 0.713576,1.2317 0.382519,0.63926 0.998056,1.77458 0.03182,0.0747 1.088573,-0.37523 1.056756,-0.44995 v 0 c -0.593944,-1.19211 -0.270716,-0.57552 -0.976979,-1.84594 -1.085101,-1.830351 -2.21166,-3.836711 -4.364305,-4.523621 -0.06777,-0.0317 -0.516276,0.92674 -0.448503,0.95846 z" />
    <path
       style="fill:#fff2ef;fill-opacity:1;fill-rule:evenodd;stroke:#fff2ef;stroke-width:1;stroke-linecap:square;stroke-linejoin:round;stroke-dasharray:none;stroke-dashoffset:0;stroke-opacity:1;paint-order:stroke fill markers"
       id="path13845"
       d="m 17.662514,74.639711 c 1.420335,-2.967956 3.315568,-5.638872 5.316234,-8.236326 2.331631,-2.992707 4.921994,-5.768575 7.548751,-8.500996 2.145099,-2.246471 4.264953,-4.51666 6.393122,-6.779093 1.68461,-1.768139 3.021615,-3.864687 4.847357,-5.500918 0.32957,-0.29536 0.687967,-0.556879 1.031949,-0.835319 1.963547,-1.475221 4.221668,-2.370986 6.599531,-2.907284 0.19286,0.01193 0.389604,-0.0045 0.578583,0.03582 2.311958,0.493093 4.143631,2.326428 5.820738,3.865652 1.489495,1.520923 3.079538,3.015647 4.205507,4.843262 0.16384,0.26594 0.299775,0.548095 0.449664,0.822142 0.874401,1.767446 1.209847,3.699756 1.362829,5.646134 -0.0033,0.739307 0.03561,1.393878 -0.137411,2.12279 -0.442193,1.862891 -1.705274,3.463419 -2.82635,4.959421 -2.197235,2.616708 -4.476324,5.165881 -6.959637,7.514479 -0.997876,1.006596 -2.11187,1.902544 -3.058594,2.960343 -0.188349,0.210447 -0.755949,0.923486 -0.934784,1.14626 -0.853374,0.955707 -1.70145,1.913083 -2.49351,2.920627 -0.436269,0.552982 -0.220271,0.298156 -0.642765,0.768876 -0.04425,0.06212 0.834223,0.687986 0.878477,0.625869 v 0 c 0.46763,-0.510304 0.23567,-0.241903 0.693428,-0.80732 0.801497,-0.998887 1.652633,-1.951487 2.506673,-2.905257 1.181307,-1.4649 2.618005,-2.664518 4.019955,-3.913196 2.558568,-2.366533 4.890526,-4.957474 7.087481,-7.66224 1.221605,-1.680403 2.471063,-3.414559 2.910631,-5.49103 0.176734,-0.834867 0.131776,-1.478188 0.129527,-2.319764 -0.17494,-2.082244 -0.547796,-4.139626 -1.472621,-6.035143 -1.220856,-2.292366 -2.871256,-4.212235 -4.743561,-6.006081 -1.674527,-1.555517 -4.135773,-3.872606 -6.503503,-4.178448 -0.450239,-0.05816 -0.907762,0.01884 -1.361641,0.02824 -2.567898,0.557861 -4.907833,1.531969 -7.012467,3.135461 -0.36695,0.303773 -0.749527,0.5896 -1.100851,0.911317 -1.815431,1.662446 -3.207285,3.727175 -4.896948,5.506416 -2.114347,2.267384 -4.210146,4.551751 -6.392043,6.755114 -2.689611,2.736702 -5.303883,5.553789 -7.684478,8.566573 -2.038448,2.680396 -3.963344,5.464993 -5.189109,8.62562 -0.02248,0.07282 1.00735,0.390811 1.029836,0.31799 z" />
    <path
       style="fill:#fff2ef;fill-opacity:1;fill-rule:evenodd;stroke:#fff2ef;stroke-width:1;stroke-linecap:square;stroke-linejoin:round;stroke-dasharray:none;stroke-dashoffset:0;stroke-opacity:1;paint-order:stroke fill markers"
       id="path13849"
       d="m 45.072369,51.017603 c 0.404816,-2.176082 1.15165,-4.267608 2.045444,-6.286318 0.290817,-0.502179 0.529966,-1.212667 1.116401,-1.464585 0.130887,-0.05623 0.278075,-0.06202 0.416899,-0.09396 0.664895,-0.07821 1.309529,-0.289896 1.960049,-0.44799 0.06751,-0.03299 -0.398994,-0.987782 -0.466508,-0.954794 v 0 c -0.654817,0.163806 -1.300414,0.365757 -1.968619,0.47163 -1.102799,0.328671 -1.627052,1.080381 -2.147607,2.079657 -0.976781,2.076379 -1.784101,4.258842 -2.032534,6.554642 -0.01003,0.07612 1.066453,0.217837 1.076475,0.141718 z" />
    <path
       style="fill:#fff2ef;fill-opacity:1;fill-rule:evenodd;stroke:#fff2ef;stroke-width:1;stroke-linecap:square;stroke-linejoin:round;stroke-dasharray:none;stroke-dashoffset:0;stroke-opacity:1;paint-order:stroke fill markers"
       id="path13851"
       d="m 52.332586,51.509699 c 0.458203,-1.524659 1.149361,-2.970814 1.971191,-4.330571 0.262856,-0.309483 0.66961,-1.119552 1.20591,-0.972941 0.0696,-0.02291 -0.254585,-1.007129 -0.324178,-0.984208 v 0 c -0.853641,0.16501 -1.417315,0.747472 -1.894409,1.454666 -0.880986,1.428337 -1.641022,2.958917 -1.988486,4.611949 -0.01564,0.07283 1.014338,0.293936 1.029972,0.221105 z" />
    <path
       style="fill:#fff2ef;fill-opacity:1;fill-rule:evenodd;stroke:#fff2ef;stroke-width:1;stroke-linecap:square;stroke-linejoin:round;stroke-dasharray:none;stroke-dashoffset:0;stroke-opacity:1;paint-order:stroke fill markers"
       id="path13855"
       d="m 54.52753,56.25893 c 0.472712,-1.346933 1.125543,-2.64672 1.969519,-3.798978 0.704048,-0.867942 1.661202,-1.500375 2.658377,-1.987404 0.09368,-0.03362 0.187354,-0.06725 0.28103,-0.100875 0.0638,-0.03889 -0.486207,-0.941173 -0.550006,-0.902282 v 0 c -0.121406,0.0455 -0.242813,0.09099 -0.36422,0.13649 -1.142516,0.551823 -2.197187,1.286756 -2.990289,2.289977 -0.914776,1.261237 -1.684327,2.670508 -2.042133,4.196707 -0.01177,0.07338 1.025959,0.239744 1.037722,0.166365 z" />
    <path
       style="fill:#fff2ef;fill-opacity:1;fill-rule:evenodd;stroke:#fff2ef;stroke-width:1;stroke-linecap:square;stroke-linejoin:round;stroke-dasharray:none;stroke-dashoffset:0;stroke-opacity:1;paint-order:stroke fill markers"
       id="path13859"
       d="m 8.4118435,55.443523 c 1.3742696,0.241671 2.7501335,0.479341 4.1323135,0.675995 0.07859,0.03008 0.50397,-1.081302 0.425383,-1.111382 v 0 c -1.603168,-0.210474 -3.199177,-0.533665 -4.8179722,-0.578319 -0.07168,0.01841 0.1885958,1.032111 0.2602757,1.013706 z" />
    <path
       style="fill:#fff2ef;fill-opacity:1;fill-rule:evenodd;stroke:#fff2ef;stroke-width:1;stroke-linecap:square;stroke-linejoin:round;stroke-dasharray:none;stroke-dashoffset:0;stroke-opacity:1;paint-order:stroke fill markers"
       id="path13861"
       d="m 18.127551,32.627722 c 2.614437,1.552753 4.786381,3.742653 7.03519,5.76679 0.311515,0.287017 0.62303,0.574032 0.934545,0.861049 0.05337,0.06699 1.000684,-0.687734 0.947317,-0.754721 v 0 C 26.74328,38.19368 26.441957,37.88652 26.14063,37.579357 23.841662,35.419624 21.538032,33.12153 18.685703,31.705589 c -0.0652,-0.03947 -0.623357,0.882668 -0.558152,0.922133 z" />
    <path
       style="fill:#fff2ef;fill-opacity:1;fill-rule:evenodd;stroke:#fff2ef;stroke-width:1;stroke-linecap:square;stroke-linejoin:round;stroke-dasharray:none;stroke-dashoffset:0;stroke-opacity:1;paint-order:stroke fill markers"
       id="path13863"
       d="m 47.092842,23.921531 c -0.332735,2.444009 -0.797304,4.86619 -1.218679,7.29561 -0.0132,0.08223 1.14968,0.26887 1.162878,0.186643 v 0 c 0.51321,-2.442374 1.010002,-4.900986 1.126201,-7.40058 0.0058,-0.07569 -1.064625,-0.157362 -1.0704,-0.08167 z" />
    <path
       style="fill:#fff2ef;fill-opacity:1;fill-rule:evenodd;stroke:#fff2ef;stroke-width:1;stroke-linecap:square;stroke-linejoin:round;stroke-dasharray:none;stroke-dashoffset:0;stroke-opacity:1;paint-order:stroke fill markers"
       id="path13865"
       d="m 73.324543,41.265601 c 1.422233,-0.611884 2.769153,-1.375617 4.116943,-2.132367 0.0699,-0.05665 -0.731205,-1.045186 -0.801105,-0.988539 v 0 c -1.318337,0.740071 -2.638954,1.475991 -3.958675,2.213586 -0.06416,0.04545 0.578678,0.952773 0.642837,0.90732 z" />
    <path
       style="fill:#fff2ef;fill-opacity:1;fill-rule:evenodd;stroke:#fff2ef;stroke-width:1;stroke-linecap:square;stroke-linejoin:round;stroke-dasharray:none;stroke-dashoffset:0;stroke-opacity:1;paint-order:stroke fill markers"
       id="path13867"
       d="m 65.014504,74.243317 c 1.931948,0.59789 3.754351,1.639576 5.273503,2.974134 0.240409,0.311131 0.158277,0.34716 -0.06918,0.524515 -0.04713,0.05456 0.724537,0.721022 0.771662,0.666457 v 0 c 0.584515,-0.538697 0.598255,-1.2348 0.169101,-1.895944 -1.567286,-1.601888 -3.599926,-2.786835 -5.793552,-3.275668 -0.07117,-0.02487 -0.422701,0.981651 -0.351529,1.006506 z" />
  </g>
</svg>
